# xmcd
#
# Track frame offsets: 
#        150
#        18928
#        51515
#        82250
#
# Disc length: 1489 seconds
#
# Revision: 3
# Processed by: cddbd v1.5.2PL0 Copyright (c) Steve Scherf et al.
# Submitted via: ExactAudioCopyFreeDBPlugin 1.0
#
DISCID=2f05cf04
DTITLE=Three 'N One - Reflect
DYEAR=1997
DGENRE=Trance
TTITLE0=Reflect (Red Jerry edit)
TTITLE1=Reflect (Original Mix)
TTITLE2=Reflect (Chris Liberator Mix)
TTITLE3=Down In The Hole
EXTD=YEAR: 1997
EXTT0=
EXTT1=
EXTT2=
EXTT3=
PLAYORDER=
